<svg width="32" height="33" viewBox="0 0 32 33" fill="none" xmlns="http://www.w3.org/2000/svg">
<path d="M21 14.4065C21 14.6718 20.8946 14.9261 20.7071 15.1136C20.5196 15.3012 20.2652 15.4065 20 15.4065H12C11.7348 15.4065 11.4804 15.3012 11.2929 15.1136C11.1054 14.9261 11 14.6718 11 14.4065C11 14.1413 11.1054 13.887 11.2929 13.6994C11.4804 13.5119 11.7348 13.4065 12 13.4065H20C20.2652 13.4065 20.5196 13.5119 20.7071 13.6994C20.8946 13.887 21 14.1413 21 14.4065ZM20 17.4065H12C11.7348 17.4065 11.4804 17.5119 11.2929 17.6994C11.1054 17.887 11 18.1413 11 18.4065C11 18.6718 11.1054 18.9261 11.2929 19.1136C11.4804 19.3012 11.7348 19.4065 12 19.4065H20C20.2652 19.4065 20.5196 19.3012 20.7071 19.1136C20.8946 18.9261 21 18.6718 21 18.4065C21 18.1413 20.8946 17.887 20.7071 17.6994C20.5196 17.5119 20.2652 17.4065 20 17.4065ZM29 16.4065C29.0005 18.6509 28.4199 20.8573 27.3147 22.8107C26.2095 24.7642 24.6174 26.3982 22.6934 27.5538C20.7693 28.7094 18.5788 29.3472 16.3352 29.405C14.0915 29.4629 11.8711 28.9389 9.89 27.884L5.63375 29.3028C5.28136 29.4203 4.9032 29.4374 4.54166 29.352C4.18012 29.2667 3.84948 29.0824 3.58681 28.8197C3.32414 28.557 3.13982 28.2264 3.0545 27.8649C2.96918 27.5033 2.98623 27.1252 3.10375 26.7728L4.5225 22.5165C3.59519 20.7731 3.07725 18.8413 3.008 16.8677C2.93875 14.8942 3.32001 12.9309 4.12284 11.1267C4.92567 9.32253 6.12897 7.72497 7.6414 6.45527C9.15383 5.18558 10.9356 4.27713 12.8516 3.79888C14.7675 3.32062 16.7672 3.28514 18.699 3.69512C20.6307 4.1051 22.4436 4.94976 24.0001 6.165C25.5566 7.38023 26.8158 8.9341 27.6822 10.7087C28.5485 12.4832 28.9992 14.4318 29 16.4065ZM27 16.4065C26.9995 14.7192 26.6109 13.0546 25.8641 11.5415C25.1174 10.0284 24.0325 8.70733 22.6935 7.68057C21.3545 6.65382 19.7973 5.94887 18.1422 5.62027C16.4872 5.29166 14.7787 5.34821 13.149 5.78553C11.5194 6.22285 10.0121 7.02923 8.74394 8.14227C7.47577 9.25532 6.48065 10.6452 5.83558 12.2044C5.1905 13.7635 4.91277 15.4502 5.02387 17.1339C5.13496 18.8176 5.63191 20.4531 6.47625 21.914C6.54712 22.0367 6.59112 22.173 6.60534 22.3139C6.61956 22.4549 6.60368 22.5972 6.55875 22.7315L5 27.4065L9.675 25.8478C9.77683 25.8131 9.88367 25.7953 9.99125 25.7953C10.1669 25.7956 10.3393 25.8422 10.4912 25.9303C12.1635 26.8978 14.0611 27.4078 15.9931 27.4091C17.925 27.4103 19.8232 26.9026 21.4967 25.9372C23.1702 24.9718 24.5599 23.5827 25.526 21.9096C26.492 20.2365 27.0004 18.3385 27 16.4065Z" fill="#01A1EF"/>
</svg>
