<svg width="32" height="33" viewBox="0 0 32 33" fill="none" xmlns="http://www.w3.org/2000/svg">
<path d="M23 8.40649H5C4.73478 8.40649 4.48043 8.51185 4.29289 8.69939C4.10536 8.88692 4 9.14128 4 9.40649V27.4065C4 27.6717 4.10536 27.9261 4.29289 28.1136C4.48043 28.3011 4.73478 28.4065 5 28.4065H23C23.2652 28.4065 23.5196 28.3011 23.7071 28.1136C23.8946 27.9261 24 27.6717 24 27.4065V9.40649C24 9.14128 23.8946 8.88692 23.7071 8.69939C23.5196 8.51185 23.2652 8.40649 23 8.40649ZM22 26.4065H6V10.4065H22V26.4065ZM28 5.40649V23.4065C28 23.6717 27.8946 23.9261 27.7071 24.1136C27.5196 24.3011 27.2652 24.4065 27 24.4065C26.7348 24.4065 26.4804 24.3011 26.2929 24.1136C26.1054 23.9261 26 23.6717 26 23.4065V6.40649H9C8.73478 6.40649 8.48043 6.30114 8.29289 6.1136C8.10536 5.92606 8 5.67171 8 5.40649C8 5.14128 8.10536 4.88692 8.29289 4.69939C8.48043 4.51185 8.73478 4.40649 9 4.40649H27C27.2652 4.40649 27.5196 4.51185 27.7071 4.69939C27.8946 4.88692 28 5.14128 28 5.40649Z" fill="#01A1EF"/>
</svg>
