<svg width="30" height="31" viewBox="0 0 30 31" fill="none" xmlns="http://www.w3.org/2000/svg">
<path d="M20.2375 3.31299H9.7625C5.2125 3.31299 2.5 6.02549 2.5 10.5755V21.038C2.5 25.6005 5.2125 28.313 9.7625 28.313H20.225C24.775 28.313 27.4875 25.6005 27.4875 21.0505V10.5755C27.5 6.02549 24.7875 3.31299 20.2375 3.31299ZM10.625 8.78799C11.9125 8.78799 12.975 9.83799 12.975 11.138C12.975 12.438 11.925 13.488 10.625 13.488C9.325 13.488 8.275 12.413 8.275 11.1255C8.275 9.83799 9.3375 8.78799 10.625 8.78799ZM15 24.663C11.6375 24.663 8.9 21.9255 8.9 18.563C8.9 17.688 9.6125 16.963 10.4875 16.963H19.4875C20.3625 16.963 21.075 17.6755 21.075 18.563C21.1 21.9255 18.3625 24.663 15 24.663ZM19.375 13.463C18.0875 13.463 17.025 12.413 17.025 11.113C17.025 9.81299 18.075 8.76299 19.375 8.76299C20.675 8.76299 21.725 9.81299 21.725 11.113C21.725 12.413 20.6625 13.463 19.375 13.463Z" fill="#006FE7"/>
</svg>
