<svg width="32" height="33" viewBox="0 0 32 33" fill="none" xmlns="http://www.w3.org/2000/svg">
<path d="M22.5 18.4065H20V14.4065H22.5C23.39 14.4065 24.26 14.1426 25.0001 13.6481C25.7401 13.1536 26.3169 12.4508 26.6575 11.6286C26.9981 10.8063 27.0872 9.9015 26.9135 9.02859C26.7399 8.15567 26.3113 7.35385 25.682 6.72452C25.0526 6.09518 24.2508 5.6666 23.3779 5.49296C22.505 5.31933 21.6002 5.40844 20.7779 5.74904C19.9557 6.08963 19.2529 6.66641 18.7584 7.40643C18.2639 8.14645 18 9.01648 18 9.9065V12.4065H14V9.9065C14 9.01648 13.7361 8.14645 13.2416 7.40643C12.7471 6.66641 12.0443 6.08963 11.2221 5.74904C10.3998 5.40844 9.49501 5.31933 8.6221 5.49296C7.74918 5.6666 6.94736 6.09518 6.31802 6.72452C5.68868 7.35385 5.2601 8.15567 5.08647 9.02859C4.91283 9.9015 5.00195 10.8063 5.34254 11.6286C5.68314 12.4508 6.25991 13.1536 6.99994 13.6481C7.73996 14.1426 8.60999 14.4065 9.5 14.4065H12V18.4065H9.5C8.60999 18.4065 7.73996 18.6704 6.99994 19.1649C6.25991 19.6593 5.68314 20.3622 5.34254 21.1844C5.00195 22.0067 4.91283 22.9115 5.08647 23.7844C5.2601 24.6573 5.68868 25.4591 6.31802 26.0885C6.94736 26.7178 7.74918 27.1464 8.6221 27.32C9.49501 27.4937 10.3998 27.4045 11.2221 27.064C12.0443 26.7234 12.7471 26.1466 13.2416 25.4066C13.7361 24.6665 14 23.7965 14 22.9065V20.4065H18V22.9065C18 23.7965 18.2639 24.6665 18.7584 25.4066C19.2529 26.1466 19.9557 26.7234 20.7779 27.064C21.6002 27.4045 22.505 27.4937 23.3779 27.32C24.2508 27.1464 25.0526 26.7178 25.682 26.0885C26.3113 25.4591 26.7399 24.6573 26.9135 23.7844C27.0872 22.9115 26.9981 22.0067 26.6575 21.1844C26.3169 20.3622 25.7401 19.6593 25.0001 19.1649C24.26 18.6704 23.39 18.4065 22.5 18.4065ZM20 9.9065C20 9.41204 20.1466 8.92869 20.4213 8.51757C20.696 8.10645 21.0865 7.78602 21.5433 7.5968C22.0001 7.40758 22.5028 7.35807 22.9877 7.45453C23.4727 7.551 23.9181 7.7891 24.2678 8.13873C24.6174 8.48836 24.8555 8.93382 24.952 9.41877C25.0484 9.90372 24.9989 10.4064 24.8097 10.8632C24.6205 11.32 24.3001 11.7105 23.8889 11.9852C23.4778 12.2599 22.9945 12.4065 22.5 12.4065H20V9.9065ZM7 9.9065C7 9.24345 7.26339 8.60757 7.73223 8.13873C8.20108 7.66989 8.83696 7.4065 9.5 7.4065C10.163 7.4065 10.7989 7.66989 11.2678 8.13873C11.7366 8.60757 12 9.24345 12 9.9065V12.4065H9.5C8.83696 12.4065 8.20108 12.1431 7.73223 11.6743C7.26339 11.2054 7 10.5695 7 9.9065ZM12 22.9065C12 23.4009 11.8534 23.8843 11.5787 24.2954C11.304 24.7065 10.9135 25.027 10.4567 25.2162C9.9999 25.4054 9.49723 25.4549 9.01228 25.3585C8.52732 25.262 8.08187 25.0239 7.73223 24.6743C7.3826 24.3246 7.1445 23.8792 7.04804 23.3942C6.95158 22.9093 7.00108 22.4066 7.1903 21.9498C7.37952 21.493 7.69995 21.1025 8.11108 20.8278C8.5222 20.5531 9.00555 20.4065 9.5 20.4065H12V22.9065ZM14 14.4065H18V18.4065H14V14.4065ZM22.5 25.4065C21.837 25.4065 21.2011 25.1431 20.7322 24.6743C20.2634 24.2054 20 23.5695 20 22.9065V20.4065H22.5C23.163 20.4065 23.7989 20.6699 24.2678 21.1387C24.7366 21.6076 25 22.2435 25 22.9065C25 23.5695 24.7366 24.2054 24.2678 24.6743C23.7989 25.1431 23.163 25.4065 22.5 25.4065Z" fill="#01A1EF"/>
</svg>
