<svg width="30" height="31" viewBox="0 0 30 31" fill="none" xmlns="http://www.w3.org/2000/svg">
<path d="M25.4504 16.7255C24.9879 16.7255 24.6004 16.3755 24.5504 15.913C24.2504 13.163 22.7754 10.688 20.5004 9.11296C20.0879 8.82546 19.9879 8.26296 20.2754 7.85046C20.5629 7.43796 21.1254 7.33796 21.5379 7.62546C24.2504 9.51296 26.0004 12.463 26.3629 15.7255C26.4129 16.2255 26.0504 16.6755 25.5504 16.7255C25.5129 16.7255 25.4879 16.7255 25.4504 16.7255Z" fill="#006FE7"/>
<path d="M4.67512 16.788C4.65012 16.788 4.61262 16.788 4.58762 16.788C4.08762 16.738 3.72512 16.288 3.77512 15.788C4.11262 12.5255 5.83762 9.5755 8.52512 7.6755C8.92512 7.388 9.50012 7.488 9.78762 7.888C10.0751 8.3005 9.97512 8.863 9.57512 9.1505C7.32512 10.7505 5.86262 13.2255 5.58762 15.963C5.53762 16.438 5.13762 16.788 4.67512 16.788Z" fill="#006FE7"/>
<path d="M19.9877 27.1879C18.4502 27.9254 16.8002 28.3004 15.0752 28.3004C13.2752 28.3004 11.5627 27.9004 9.96275 27.0879C9.51275 26.8754 9.33775 26.3254 9.56275 25.8754C9.77525 25.4254 10.3252 25.2504 10.7752 25.4629C11.5627 25.8629 12.4002 26.1379 13.2502 26.3004C14.4002 26.5254 15.5752 26.5379 16.7252 26.3379C17.5752 26.1879 18.4127 25.9254 19.1877 25.5504C19.6502 25.3379 20.2002 25.5129 20.4002 25.9754C20.6252 26.4254 20.4502 26.9754 19.9877 27.1879Z" fill="#006FEE"/>
<path d="M15.0621 3.32544C13.1246 3.32544 11.5371 4.90044 11.5371 6.85044C11.5371 8.80044 13.1121 10.3754 15.0621 10.3754C17.0121 10.3754 18.5871 8.80044 18.5871 6.85044C18.5871 4.90044 17.0121 3.32544 15.0621 3.32544Z" fill="#006FEE"/>
<path d="M6.31211 18.1504C4.37461 18.1504 2.78711 19.7254 2.78711 21.6754C2.78711 23.6254 4.36211 25.2004 6.31211 25.2004C8.26211 25.2004 9.83711 23.6254 9.83711 21.6754C9.83711 19.7254 8.24961 18.1504 6.31211 18.1504Z" fill="#006FEE"/>
<path d="M23.6871 18.1504C21.7496 18.1504 20.1621 19.7254 20.1621 21.6754C20.1621 23.6254 21.7371 25.2004 23.6871 25.2004C25.6371 25.2004 27.2121 23.6254 27.2121 21.6754C27.2121 19.7254 25.6371 18.1504 23.6871 18.1504Z" fill="#006FEE"/>
</svg>
