<svg width="30" height="31" viewBox="0 0 30 31" fill="none" xmlns="http://www.w3.org/2000/svg">
<path d="M26.9496 14.2379L25.2496 12.2629C24.9246 11.8879 24.6621 11.1879 24.6621 10.6879V8.56294C24.6621 7.23794 23.5746 6.15044 22.2496 6.15044H20.1246C19.6371 6.15044 18.9246 5.88794 18.5496 5.56294L16.5746 3.86294C15.7121 3.12544 14.2996 3.12544 13.4246 3.86294L11.4621 5.57544C11.0871 5.88794 10.3746 6.15044 9.88711 6.15044H7.72461C6.39961 6.15044 5.31211 7.23794 5.31211 8.56294V10.7004C5.31211 11.1879 5.04961 11.8879 4.73711 12.2629L3.04961 14.2504C2.32461 15.1129 2.32461 16.5129 3.04961 17.3754L4.73711 19.3629C5.04961 19.7379 5.31211 20.4379 5.31211 20.9254V23.0629C5.31211 24.3879 6.39961 25.4754 7.72461 25.4754H9.88711C10.3746 25.4754 11.0871 25.7379 11.4621 26.0629L13.4371 27.7629C14.2996 28.5004 15.7121 28.5004 16.5871 27.7629L18.5621 26.0629C18.9371 25.7379 19.6371 25.4754 20.1371 25.4754H22.2621C23.5871 25.4754 24.6746 24.3879 24.6746 23.0629V20.9379C24.6746 20.4504 24.9371 19.7379 25.2621 19.3629L26.9621 17.3879C27.6871 16.5254 27.6871 15.1004 26.9496 14.2379ZM20.1996 13.4504L14.1621 19.4879C13.9871 19.6629 13.7496 19.7629 13.4996 19.7629C13.2496 19.7629 13.0121 19.6629 12.8371 19.4879L9.81211 16.4629C9.44961 16.1004 9.44961 15.5004 9.81211 15.1379C10.1746 14.7754 10.7746 14.7754 11.1371 15.1379L13.4996 17.5004L18.8746 12.1254C19.2371 11.7629 19.8371 11.7629 20.1996 12.1254C20.5621 12.4879 20.5621 13.0879 20.1996 13.4504Z" fill="#006FE7"/>
</svg>
